<svg id="Logo" xmlns="http://www.w3.org/2000/svg" xmlns:xlink="http://www.w3.org/1999/xlink" width="97.36" height="22.5" viewBox="0 0 97.36 22.5">
  <defs>
    <clipPath id="clip-path">
      <rect id="Rectangle_108" data-name="Rectangle 108" width="97.36" height="22.5" fill="none"/>
    </clipPath>
  </defs>
  <g id="Group_369" data-name="Group 369" clip-path="url(#clip-path)">
    <path id="Path_2689" data-name="Path 2689" d="M0,2.614A2.572,2.572,0,0,1,2.643,0,2.58,2.58,0,0,1,5.316,2.614,2.586,2.586,0,0,1,2.643,5.258,2.579,2.579,0,0,1,0,2.614M.5,7.167H4.788v14.98H.5Z" fill="#fff"/>
    <path id="Path_2690" data-name="Path 2690" d="M57.78,25.393H54.226V32.56H57.78v3.907H49.937V17.08h4.288v4.406H57.78Z" transform="translate(-41.864 -14.319)" fill="#fff"/>
    <path id="Path_2691" data-name="Path 2691" d="M118.371,42.508h4.288v14.98h-4.288V55.843a5.908,5.908,0,0,1-4.524,2,6.741,6.741,0,0,1-5.17-2.233A7.968,7.968,0,0,1,106.621,50a7.9,7.9,0,0,1,2.056-5.581,6.768,6.768,0,0,1,5.17-2.262,5.907,5.907,0,0,1,4.524,2Zm0,7.49a3.657,3.657,0,1,0-3.672,3.7,3.59,3.59,0,0,0,3.672-3.7" transform="translate(-89.384 -35.34)" fill="#fff"/>
    <path id="Path_2692" data-name="Path 2692" d="M233.429,25.393h-3.554V32.56h3.554v3.907h-7.843V17.08h4.288v4.406h3.554Z" transform="translate(-189.117 -14.319)" fill="#fff"/>
    <path id="Path_2693" data-name="Path 2693" d="M287.174,2.614a2.659,2.659,0,0,1,5.316,0,2.658,2.658,0,0,1-5.316,0m.5,4.553h4.288v14.98h-4.288Z" transform="translate(-240.748)" fill="#fff"/>
    <path id="Path_2694" data-name="Path 2694" d="M344.52,42.508h4.288v14.98H344.52V55.843a5.908,5.908,0,0,1-4.524,2,6.74,6.74,0,0,1-5.17-2.233A7.968,7.968,0,0,1,332.77,50a7.9,7.9,0,0,1,2.056-5.581A6.767,6.767,0,0,1,340,42.155a5.907,5.907,0,0,1,4.524,2Zm0,7.49a3.657,3.657,0,1,0-3.672,3.7A3.59,3.59,0,0,0,344.52,50" transform="translate(-278.973 -35.34)" fill="#fff"/>
    <path id="Path_2695" data-name="Path 2695" d="M449.953,2.614a2.659,2.659,0,0,1,5.316,0,2.658,2.658,0,0,1-5.316,0m.5,4.553h4.288v14.98h-4.288Z" transform="translate(-377.212)" fill="#fff"/>
    <path id="Path_2696" data-name="Path 2696" d="M507.3,42.508h4.288v14.98H507.3V55.843a5.908,5.908,0,0,1-4.524,2,6.741,6.741,0,0,1-5.17-2.233A7.968,7.968,0,0,1,495.55,50a7.9,7.9,0,0,1,2.056-5.581,6.768,6.768,0,0,1,5.17-2.262,5.907,5.907,0,0,1,4.524,2Zm0,7.49a3.657,3.657,0,1,0-3.672,3.7A3.59,3.59,0,0,0,507.3,50" transform="translate(-415.438 -35.34)" fill="#fff"/>
  </g>
</svg>
