<svg id="Grupo_25" data-name="Grupo 25" xmlns="http://www.w3.org/2000/svg" width="147.448" height="146" viewBox="0 0 147.448 146">
  <g id="Grupo_20" data-name="Grupo 20" transform="translate(0 35.665)">
    <g id="Grupo_19" data-name="Grupo 19">
      <path id="Caminho_60" data-name="Caminho 60" d="M337.872,253.975l-1.333-.719,1.143-2.122-1.535-.828-1.08,2-1.333-.72,1.079-2-1.535-.828-1.145,2.121-1.334-.719,1.909-3.535,7.071,3.815Z" transform="translate(-323.051 -246.625)" fill="#706f6f"/>
      <path id="Caminho_61" data-name="Caminho 61" d="M327.993,258.731a1.536,1.536,0,0,1,.83.078l.967.362-.564,1.5-1.052-.395-.564,1.5,1.633.613.564-1.5a1.549,1.549,0,0,1,.477-.666,1.639,1.639,0,0,1,.736-.349,1.561,1.561,0,0,1,.812.06l1.5.564a1.535,1.535,0,0,1,.675.486,1.648,1.648,0,0,1,.343.753,1.537,1.537,0,0,1-.078.828l-.564,1.5a1.55,1.55,0,0,1-.486.676,1.669,1.669,0,0,1-.754.342,1.548,1.548,0,0,1-.828-.078l-.968-.363.564-1.5,1.052.4.564-1.5-1.633-.613-.564,1.5a1.546,1.546,0,0,1-.476.667,1.634,1.634,0,0,1-.738.348,1.549,1.549,0,0,1-.811-.059l-1.5-.564a1.54,1.54,0,0,1-.675-.487,1.644,1.644,0,0,1-.343-.752,1.565,1.565,0,0,1,.078-.83l.564-1.5a1.537,1.537,0,0,1,.487-.676A1.644,1.644,0,0,1,327.993,258.731Z" transform="translate(-321.787 -249.864)" fill="#706f6f"/>
      <path id="Caminho_62" data-name="Caminho 62" d="M329.614,272.636l1.478.343-1.088,4.7-1.476-.341.361-1.568-6.356-1.471.362-1.565,6.357,1.47Z" transform="translate(-320.834 -253.599)" fill="#706f6f"/>
      <path id="Caminho_63" data-name="Caminho 63" d="M322.258,282.638a.407.407,0,0,1,.4.516l-.089.683a.406.406,0,0,1-.515.4l-.684-.089a.406.406,0,0,1-.4-.514l.089-.684a.407.407,0,0,1,.514-.4Z" transform="translate(-320.414 -256.255)" fill="#706f6f"/>
      <path id="Caminho_64" data-name="Caminho 64" d="M325.723,302.756a1.4,1.4,0,0,0,.613.061l.6-.04-.11-1.6-1.693.115-.11-1.6,1.6-.11a1.547,1.547,0,0,1,.816.163,1.651,1.651,0,0,1,.624.544,1.541,1.541,0,0,1,.272.786l.109,1.6a1.545,1.545,0,0,1-.163.815,1.646,1.646,0,0,1-.544.624,1.548,1.548,0,0,1-.786.272l-.812.055a2.135,2.135,0,0,1-.765-.073,2.39,2.39,0,0,1-.69-.356l-2.823-2.108.192,2.816-1.511.1-.327-4.807,1.511-.1,3.387,2.461A3.489,3.489,0,0,0,325.723,302.756Z" transform="translate(-320.212 -260.822)" fill="#706f6f"/>
      <path id="Caminho_65" data-name="Caminho 65" d="M322.608,313.683a1.542,1.542,0,0,1,.741-.378l4.717-.99a1.549,1.549,0,0,1,.831.049,1.663,1.663,0,0,1,.692.452,1.542,1.542,0,0,1,.379.742l.329,1.572a1.546,1.546,0,0,1-.048.831,1.661,1.661,0,0,1-.452.693,1.542,1.542,0,0,1-.741.378l-4.718.99a1.546,1.546,0,0,1-.831-.049,1.649,1.649,0,0,1-.692-.453,1.537,1.537,0,0,1-.379-.741l-.329-1.572a1.539,1.539,0,0,1,.048-.831A1.638,1.638,0,0,1,322.608,313.683Zm6.207,1.758-.329-1.572-4.9,1.026.329,1.574Z" transform="translate(-320.711 -264.229)" fill="#706f6f"/>
      <path id="Caminho_66" data-name="Caminho 66" d="M326.033,326.794a1.559,1.559,0,0,1,.683-.479l4.537-1.634a1.557,1.557,0,0,1,.831-.067,1.63,1.63,0,0,1,.749.353,1.536,1.536,0,0,1,.479.683l.545,1.512a1.553,1.553,0,0,1,.067.83,1.65,1.65,0,0,1-.353.749,1.542,1.542,0,0,1-.681.477l-4.538,1.636a1.55,1.55,0,0,1-.829.067,1.669,1.669,0,0,1-.75-.353,1.548,1.548,0,0,1-.477-.683l-.545-1.512a1.545,1.545,0,0,1-.067-.829A1.668,1.668,0,0,1,326.033,326.794Zm6.4.88-.546-1.512-4.71,1.7.546,1.512Z" transform="translate(-321.671 -267.528)" fill="#706f6f"/>
      <path id="Caminho_67" data-name="Caminho 67" d="M338.843,340.162a1.509,1.509,0,0,1-.6.575l-4.259,2.256a1.513,1.513,0,0,1-.8.179,1.694,1.694,0,0,1-.8-.241,1.5,1.5,0,0,1-.574-.605l-1.4-2.635,1.338-.709,1.4,2.636,1.095-.581-.752-1.418a1.557,1.557,0,0,1-.183-.812,1.657,1.657,0,0,1,.243-.791,1.561,1.561,0,0,1,.608-.569l1.825-.966a1.557,1.557,0,0,1,.812-.184,1.657,1.657,0,0,1,.791.243,1.55,1.55,0,0,1,.569.608l.752,1.42a1.515,1.515,0,0,1,.176.8A1.675,1.675,0,0,1,338.843,340.162Zm-3.264.165,1.989-1.052-.752-1.421-1.987,1.053Z" transform="translate(-322.947 -270.667)" fill="#706f6f"/>
    </g>
  </g>
  <g id="Grupo_22" data-name="Grupo 22" transform="translate(130.72 36.297)">
    <g id="Grupo_21" data-name="Grupo 21">
      <path id="Caminho_68" data-name="Caminho 68" d="M500.728,336.51l1.333.719-1.144,2.122,1.535.828,1.079-2,1.334.72-1.079,2,1.535.828,1.145-2.122,1.333.719-1.907,3.535-7.071-3.815Z" transform="translate(-498.821 -271.357)" fill="#706f6f"/>
      <path id="Caminho_69" data-name="Caminho 69" d="M510.859,332.1a1.532,1.532,0,0,1-.829-.078l-.967-.362.564-1.5,1.052.394.564-1.5-1.633-.613-.564,1.5a1.556,1.556,0,0,1-.477.666,1.638,1.638,0,0,1-.736.349,1.561,1.561,0,0,1-.812-.06l-1.5-.564a1.542,1.542,0,0,1-.676-.486,1.646,1.646,0,0,1-.343-.753,1.529,1.529,0,0,1,.078-.828l.564-1.5a1.544,1.544,0,0,1,.486-.676,1.666,1.666,0,0,1,.753-.342,1.551,1.551,0,0,1,.829.078l.968.363-.564,1.5-1.053-.4L506,328.8l1.634.613.564-1.5a1.54,1.54,0,0,1,.476-.667,1.635,1.635,0,0,1,.738-.348,1.549,1.549,0,0,1,.811.059l1.5.564a1.533,1.533,0,0,1,.675.487,1.636,1.636,0,0,1,.343.752,1.557,1.557,0,0,1-.077.83l-.564,1.5a1.538,1.538,0,0,1-.487.676A1.644,1.644,0,0,1,510.859,332.1Z" transform="translate(-500.337 -268.463)" fill="#706f6f"/>
      <path id="Caminho_70" data-name="Caminho 70" d="M509.141,318.7l-1.478-.342,1.088-4.7,1.476.341-.362,1.567,6.357,1.471-.362,1.566-6.357-1.47Z" transform="translate(-501.192 -265.228)" fill="#706f6f"/>
      <path id="Caminho_71" data-name="Caminho 71" d="M519.009,309.922a.407.407,0,0,1-.4-.516l.089-.682a.407.407,0,0,1,.516-.4l.682.089a.406.406,0,0,1,.4.514l-.089.684a.407.407,0,0,1-.515.4Z" transform="translate(-504.126 -263.799)" fill="#706f6f"/>
      <path id="Caminho_72" data-name="Caminho 72" d="M513.15,288.464a1.4,1.4,0,0,0-.613-.061l-.6.04.11,1.6,1.693-.115.11,1.6-1.6.11a1.545,1.545,0,0,1-.816-.163,1.659,1.659,0,0,1-.624-.544,1.539,1.539,0,0,1-.272-.786l-.11-1.6a1.559,1.559,0,0,1,.163-.815,1.654,1.654,0,0,1,.544-.624,1.548,1.548,0,0,1,.786-.272l.812-.055a2.137,2.137,0,0,1,.765.073,2.391,2.391,0,0,1,.69.356l2.823,2.108-.192-2.816,1.511-.1.328,4.807-1.511.1-3.387-2.461A3.461,3.461,0,0,0,513.15,288.464Z" transform="translate(-501.933 -257.921)" fill="#706f6f"/>
      <path id="Caminho_73" data-name="Caminho 73" d="M516.256,277.381a1.536,1.536,0,0,1-.741.378l-4.718.99a1.547,1.547,0,0,1-.831-.048,1.654,1.654,0,0,1-.692-.452,1.561,1.561,0,0,1-.379-.743l-.329-1.572a1.539,1.539,0,0,1,.048-.831,1.65,1.65,0,0,1,.452-.692,1.543,1.543,0,0,1,.741-.379l4.718-.989a1.539,1.539,0,0,1,.831.048,1.648,1.648,0,0,1,.692.454,1.538,1.538,0,0,1,.379.741l.329,1.572a1.541,1.541,0,0,1-.048.831A1.653,1.653,0,0,1,516.256,277.381Zm-6.208-1.758.329,1.572,4.9-1.026-.329-1.574Z" transform="translate(-501.424 -254.33)" fill="#706f6f"/>
      <path id="Caminho_74" data-name="Caminho 74" d="M512.8,264.018a1.558,1.558,0,0,1-.682.479l-4.537,1.634a1.56,1.56,0,0,1-.831.067,1.646,1.646,0,0,1-.748-.353,1.53,1.53,0,0,1-.479-.683l-.544-1.512a1.553,1.553,0,0,1-.067-.83,1.636,1.636,0,0,1,.353-.749,1.542,1.542,0,0,1,.681-.477l4.538-1.636a1.543,1.543,0,0,1,.829-.067,1.669,1.669,0,0,1,.75.353,1.555,1.555,0,0,1,.477.682l.545,1.513a1.545,1.545,0,0,1,.067.829A1.665,1.665,0,0,1,512.8,264.018Zm-6.4-.88.546,1.512,4.71-1.7-.545-1.512Z" transform="translate(-500.448 -250.806)" fill="#706f6f"/>
      <path id="Caminho_75" data-name="Caminho 75" d="M499.869,250.5a1.511,1.511,0,0,1,.6-.575l4.26-2.256a1.513,1.513,0,0,1,.8-.179,1.694,1.694,0,0,1,.8.241,1.5,1.5,0,0,1,.574.605l1.4,2.636-1.338.708-1.4-2.636-1.095.581.752,1.418a1.557,1.557,0,0,1,.184.812,1.657,1.657,0,0,1-.243.791,1.561,1.561,0,0,1-.608.569l-1.824.966a1.557,1.557,0,0,1-.812.184,1.656,1.656,0,0,1-.791-.243,1.55,1.55,0,0,1-.569-.608l-.752-1.42a1.522,1.522,0,0,1-.177-.8A1.683,1.683,0,0,1,499.869,250.5Zm3.263-.165-1.988,1.052.752,1.421,1.987-1.053Z" transform="translate(-499.037 -247.488)" fill="#706f6f"/>
    </g>
  </g>
  <g id="Grupo_23" data-name="Grupo 23" transform="translate(17.782 0)">
    <path id="Caminho_76" data-name="Caminho 76" d="M361.2,225.016l-4.24-4.828-1.207,1.06,4.3,4.9-1.207,1.06-4.3-4.9-1.207,1.06,4.24,4.828a1.555,1.555,0,0,0,.694.46,1.64,1.64,0,0,0,.826.053,1.541,1.541,0,0,0,.747-.366l1.207-1.06a1.551,1.551,0,0,0,.46-.694,1.638,1.638,0,0,0,.053-.826A1.54,1.54,0,0,0,361.2,225.016Z" transform="translate(-346.874 -203.872)" fill="#706f6f"/>
    <path id="Caminho_77" data-name="Caminho 77" d="M369.217,212.781a1.668,1.668,0,0,0-.81-.174,1.548,1.548,0,0,0-.795.253l-1.35.872a1.54,1.54,0,0,0-.558.619,1.636,1.636,0,0,0-.174.809,1.543,1.543,0,0,0,.251.795l3.488,5.406,1.353-.872-1.333-2.065,1.35-.872,1.333,2.065,1.353-.872-3.488-5.406A1.553,1.553,0,0,0,369.217,212.781Zm-.75,4.368-1.383-2.143,1.35-.872,1.383,2.142Z" transform="translate(-350.144 -201.839)" fill="#706f6f"/>
    <path id="Caminho_78" data-name="Caminho 78" d="M383.2,209.072a1.583,1.583,0,0,0-.133-.834l-.647-1.422a1.542,1.542,0,0,0-.531-.641,1.661,1.661,0,0,0-.774-.291,1.561,1.561,0,0,0-.823.133l-2.926,1.331,3.323,7.317,1.464-.665-1.349-2.969.763-.347,2.154,2.6,1.567-.711-2.4-2.72A1.549,1.549,0,0,0,383.2,209.072Zm-3.022.579-.722-1.589,1.462-.665.723,1.589Z" transform="translate(-353.319 -200.034)" fill="#706f6f"/>
    <path id="Caminho_79" data-name="Caminho 79" d="M394.288,202.525l-.436-1.451-4.619,1.39.437,1.451,1.538-.463,1.88,6.247,1.54-.463-1.88-6.247Z" transform="translate(-356.5 -198.747)" fill="#706f6f"/>
    <path id="Caminho_80" data-name="Caminho 80" d="M405.073,205.471l-.281-1.722,2.243-.366-.244-1.5-2.243.366-.28-1.722,2.378-.389-.244-1.495-3.964.647,1.294,7.93,3.964-.647-.244-1.5Z" transform="translate(-360.04 -198.097)" fill="#706f6f"/>
    <path id="Caminho_81" data-name="Caminho 81" d="M417.233,204.407l-.22-6.513-1.606.055.273,8.025,4.012-.136-.051-1.514Z" transform="translate(-363.518 -197.894)" fill="#706f6f"/>
    <path id="Caminho_82" data-name="Caminho 82" d="M439.71,199.948a1.539,1.539,0,0,0-.747-.364l-3.157-.6-1.5,7.889,3.155.6a1.542,1.542,0,0,0,.83-.064,1.651,1.651,0,0,0,.684-.466,1.538,1.538,0,0,0,.365-.747l.9-4.734a1.54,1.54,0,0,0-.063-.829A1.654,1.654,0,0,0,439.71,199.948Zm-1.964,6.037-1.577-.3.933-4.915,1.578.3Z" transform="translate(-368.585 -198.187)" fill="#706f6f"/>
    <path id="Caminho_83" data-name="Caminho 83" d="M446.838,209.866l3.8,1.294.488-1.434-2.281-.776.562-1.652,2.15.732.488-1.434-2.15-.732.562-1.651,2.281.777.488-1.434-3.8-1.294Z" transform="translate(-371.945 -199.066)" fill="#706f6f"/>
    <path id="Caminho_84" data-name="Caminho 84" d="M464.249,208.577l-1.435-.725a1.538,1.538,0,0,0-.815-.168,1.635,1.635,0,0,0-.786.258,1.536,1.536,0,0,0-.557.618l-.725,1.434a1.554,1.554,0,0,0-.149.8,1.65,1.65,0,0,0,.267.771,1.541,1.541,0,0,0,.61.546l1.434.725-.788,1.555-1.434-.723.508-1-1.434-.725-.465.922a1.546,1.546,0,0,0-.168.815,1.666,1.666,0,0,0,.258.786,1.544,1.544,0,0,0,.619.557l1.432.725a1.532,1.532,0,0,0,.816.168,1.644,1.644,0,0,0,.786-.258,1.563,1.563,0,0,0,.557-.618l.725-1.434a1.557,1.557,0,0,0,.147-.8,1.618,1.618,0,0,0-.267-.771,1.554,1.554,0,0,0-.61-.547l-1.432-.725.786-1.556,1.434.725-.507,1,1.433.724.465-.921a1.53,1.53,0,0,0,.168-.816,1.637,1.637,0,0,0-.258-.786A1.566,1.566,0,0,0,464.249,208.577Z" transform="translate(-375.021 -200.518)" fill="#706f6f"/>
    <rect id="Ret창ngulo_8" data-name="Ret창ngulo 8" width="8.034" height="1.607" transform="matrix(0.556, -0.831, 0.831, 0.556, 90.953, 18.353)" fill="#706f6f"/>
    <path id="Caminho_85" data-name="Caminho 85" d="M479.975,225.016l.61.524-1.169,1.357-1.218-1.049,3.267-3.793,1.219,1.049-.586.679,1.218,1.049.525-.609a1.549,1.549,0,0,0,.36-.752,1.649,1.649,0,0,0-.062-.826,1.54,1.54,0,0,0-.466-.69l-1.218-1.049a1.539,1.539,0,0,0-.752-.359,1.638,1.638,0,0,0-.826.061,1.543,1.543,0,0,0-.69.467l-3.148,3.654a1.561,1.561,0,0,0-.359.752,1.657,1.657,0,0,0,.061.826,1.544,1.544,0,0,0,.467.69l1.219,1.049a1.537,1.537,0,0,0,.751.36,1.66,1.66,0,0,0,.826-.062,1.552,1.552,0,0,0,.69-.465l2.1-2.437-1.827-1.573Z" transform="translate(-379.939 -203.961)" fill="#706f6f"/>
    <path id="Caminho_86" data-name="Caminho 86" d="M493.728,232.344l-3.845,3.312,2.384-5.009-1.012-1.175-6.09,5.246.937,1.088,3.828-3.3-2.367,4.994,1.012,1.175,6.09-5.246Z" transform="translate(-382.221 -206.361)" fill="#706f6f"/>
    <path id="Caminho_87" data-name="Caminho 87" d="M352.394,234l-.462.541c-.023-.021-.038-.048-.063-.068l-3.67-3.132a1.551,1.551,0,0,0-.754-.355,1.641,1.641,0,0,0-.826.064,1.542,1.542,0,0,0-.688.471l-1.044,1.223a1.546,1.546,0,0,0-.356.754,1.666,1.666,0,0,0,.066.826,1.563,1.563,0,0,0,.47.688l3.671,3.13a1.57,1.57,0,0,0,.75.36,1.6,1.6,0,0,0,.822-.061,1.551,1.551,0,0,0,.688-.47l.007-.009h0l.615-.722.429-.5.015-.018v0l1.481-1.737Zm-6.352-.271,1.044-1.224,3.811,3.25-.451.528-.593.695Z" transform="translate(-344.508 -206.76)" fill="#706f6f"/>
  </g>
  <g id="Grupo_24" data-name="Grupo 24" transform="translate(18.04 114.549)">
    <path id="Caminho_88" data-name="Caminho 88" d="M348.624,362.434l3.58-3.229a1.545,1.545,0,0,0,.451-.7,1.637,1.637,0,0,0,.042-.826,1.547,1.547,0,0,0-.376-.744l-1.077-1.194a1.546,1.546,0,0,0-.7-.451,1.659,1.659,0,0,0-.827-.042,1.547,1.547,0,0,0-.743.376l-3.58,3.229a1.579,1.579,0,0,0-.455.7,1.609,1.609,0,0,0-.048.823,1.556,1.556,0,0,0,.376.744l.008.007h0l2.62,2.911,1.127-1.014-.479-.531C348.57,362.468,348.6,362.456,348.624,362.434Zm1.5-5.678,1.077,1.194L347.48,361.3l-1.077-1.194Z" transform="translate(-344.861 -354.625)" fill="#706f6f"/>
    <path id="Caminho_89" data-name="Caminho 89" d="M361.731,365.454l-4.178,5.008-1.234-1.03,4.178-5.008-1.234-1.03-4.12,4.938a1.538,1.538,0,0,0-.348.758,1.665,1.665,0,0,0,.075.825,1.549,1.549,0,0,0,.477.683l1.235,1.03a1.554,1.554,0,0,0,.758.348,1.661,1.661,0,0,0,.824-.075,1.541,1.541,0,0,0,.683-.477l4.12-4.938Z" transform="translate(-347.519 -356.818)" fill="#706f6f"/>
    <path id="Caminho_90" data-name="Caminho 90" d="M372.217,373.187l-1.368-.845a1.544,1.544,0,0,0-.8-.237,1.646,1.646,0,0,0-.806.191,1.526,1.526,0,0,0-.608.569l-3.38,5.471,1.368.845,1.292-2.09,1.368.845-1.292,2.09,1.368.845,3.38-5.471a1.547,1.547,0,0,0,.236-.8,1.65,1.65,0,0,0-.19-.807A1.54,1.54,0,0,0,372.217,373.187Zm-2.136,3.458-1.368-.845,1.339-2.169,1.369.845Z" transform="translate(-350.329 -359.154)" fill="#706f6f"/>
    <path id="Caminho_91" data-name="Caminho 91" d="M384.037,378.952l-2.949-1.286-3.215,7.371,1.474.643,1.3-2.99.768.334-.493,3.345,1.579.689.419-3.6a1.561,1.561,0,0,0,.788-.3,1.582,1.582,0,0,0,.531-.657l.624-1.433a1.557,1.557,0,0,0,.122-.825,1.659,1.659,0,0,0-.3-.771A1.553,1.553,0,0,0,384.037,378.952Zm-1.3,2.99-1.475-.643.7-1.6,1.474.643Z" transform="translate(-353.712 -360.645)" fill="#706f6f"/>
    <path id="Caminho_92" data-name="Caminho 92" d="M392.06,383.346l1.545.446-1.813,6.268,1.545.447,1.814-6.268,1.545.447.421-1.457-4.635-1.34Z" transform="translate(-357.444 -361.777)" fill="#706f6f"/>
    <path id="Caminho_93" data-name="Caminho 93" d="M402.737,392.813l3.971.619.234-1.5-2.383-.372.269-1.724,2.246.35.234-1.5-2.247-.351.27-1.725,2.383.372.233-1.5-3.971-.62Z" transform="translate(-360.379 -362.576)" fill="#706f6f"/>
    <path id="Caminho_94" data-name="Caminho 94" d="M417.438,386.279l-1.608-.049-.245,8.039,4.02.122.046-1.516-2.412-.073Z" transform="translate(-363.823 -362.941)" fill="#706f6f"/>
    <path id="Caminho_95" data-name="Caminho 95" d="M439.136,385.949a1.543,1.543,0,0,0-.359-.75,1.63,1.63,0,0,0-.681-.471,1.539,1.539,0,0,0-.828-.07l-3.162.577,1.444,7.9,3.162-.577a1.55,1.55,0,0,0,.751-.359,1.665,1.665,0,0,0,.471-.68,1.557,1.557,0,0,0,.069-.829Zm-2.277,5.41-.9-4.922,1.581-.289.9,4.922Z" transform="translate(-368.789 -362.512)" fill="#706f6f"/>
    <path id="Caminho_96" data-name="Caminho 96" d="M450.052,387.944l-.544-1.657,2.158-.709-.472-1.439-2.159.709-.543-1.657,2.288-.751-.472-1.44-3.816,1.254,2.508,7.63,3.814-1.253-.473-1.44Z" transform="translate(-372.11 -361.539)" fill="#706f6f"/>
    <path id="Caminho_97" data-name="Caminho 97" d="M463.778,380.475a1.55,1.55,0,0,0-.548-.6,1.651,1.651,0,0,0-.775-.255,1.57,1.57,0,0,0-.807.156l-1.446.7-.763-1.571,1.448-.7.492,1.013,1.446-.7-.451-.93a1.552,1.552,0,0,0-.548-.628,1.654,1.654,0,0,0-.784-.272,1.548,1.548,0,0,0-.818.156l-1.448.7a1.551,1.551,0,0,0-.628.548,1.659,1.659,0,0,0-.271.783,1.553,1.553,0,0,0,.156.818l.7,1.448a1.547,1.547,0,0,0,.548.6,1.625,1.625,0,0,0,.776.255,1.551,1.551,0,0,0,.807-.154l1.447-.7.763,1.571-1.446.7-.492-1.013-1.448.7.452.93a1.541,1.541,0,0,0,.548.628,1.639,1.639,0,0,0,.783.27,1.536,1.536,0,0,0,.819-.154l1.446-.7a1.544,1.544,0,0,0,.629-.548,1.65,1.65,0,0,0,.271-.783,1.552,1.552,0,0,0-.154-.818Z" transform="translate(-375.161 -360.379)" fill="#706f6f"/>
    <rect id="Ret창ngulo_9" data-name="Ret창ngulo 9" width="1.608" height="8.035" transform="matrix(0.841, -0.541, 0.541, 0.841, 90.424, 13.459)" fill="#706f6f"/>
    <path id="Caminho_98" data-name="Caminho 98" d="M483.413,369.073l-2.044-2.485-1.864,1.533.965,1.171.62-.51,1.139,1.385-1.242,1.022-3.183-3.87,1.243-1.022.569.692,1.242-1.021-.511-.622a1.545,1.545,0,0,0-.679-.483,1.659,1.659,0,0,0-.826-.08,1.539,1.539,0,0,0-.76.342l-1.242,1.022a1.545,1.545,0,0,0-.484.678,1.67,1.67,0,0,0-.08.826,1.555,1.555,0,0,0,.343.76l3.066,3.727a1.544,1.544,0,0,0,.679.483,1.656,1.656,0,0,0,.825.08,1.543,1.543,0,0,0,.76-.343l1.243-1.022a1.544,1.544,0,0,0,.482-.678,1.646,1.646,0,0,0,.081-.826A1.552,1.552,0,0,0,483.413,369.073Z" transform="translate(-380.091 -357.185)" fill="#706f6f"/>
    <path id="Caminho_99" data-name="Caminho 99" d="M494.35,359.818l-5.941-5.409-.965,1.061,3.751,3.416-5.258-1.761-1.044,1.146,5.941,5.409.967-1.06-3.735-3.4,5.241,1.745Z" transform="translate(-382.406 -354.409)" fill="#706f6f"/>
  </g>
</svg>
