<svg xmlns="http://www.w3.org/2000/svg" xmlns:xlink="http://www.w3.org/1999/xlink" width="17" height="13.615" viewBox="0 0 17 13.615">
  <defs>
    <clipPath id="clip-path">
      <rect id="Rectangle_8" data-name="Rectangle 8" width="17" height="13.615" transform="translate(0 0)" fill="none"/>
    </clipPath>
  </defs>
  <g id="Group_5" data-name="Group 5" transform="translate(0 0)">
    <g id="Group_4" data-name="Group 4" transform="translate(0 0)" clip-path="url(#clip-path)">
      <path id="Path_8" data-name="Path 8" d="M14,1.309A1.311,1.311,0,0,0,12.692,0H1.309a1.309,1.309,0,0,0,0,2.618H12.692A1.311,1.311,0,0,0,14,1.309" transform="translate(0 0)" fill="#ff0838"/>
      <path id="Path_9" data-name="Path 9" d="M15.691,21.043a1.309,1.309,0,0,0,0-2.618H1.309a1.309,1.309,0,0,0,0,2.618Z" transform="translate(0 -12.927)" fill="#ff0838"/>
      <path id="Path_10" data-name="Path 10" d="M12.692,39.469a1.309,1.309,0,1,0,0-2.618H1.309a1.309,1.309,0,1,0,0,2.618Z" transform="translate(0 -25.855)" fill="#ff0838"/>
    </g>
  </g>
</svg>
