<svg id="Icon" xmlns="http://www.w3.org/2000/svg" xmlns:xlink="http://www.w3.org/1999/xlink" width="11.501" height="9.342" viewBox="0 0 11.501 9.342">
  <defs>
    <clipPath id="clip-path">
      <path id="Shape" d="M11.5,1.105a4.711,4.711,0,0,1-1.355.372,2.369,2.369,0,0,0,1.037-1.3,4.756,4.756,0,0,1-1.5.573A2.361,2.361,0,0,0,5.664,2.9,6.7,6.7,0,0,1,.8.431a2.362,2.362,0,0,0,.73,3.149,2.359,2.359,0,0,1-1.069-.3v.029A2.362,2.362,0,0,0,2.355,5.627a2.39,2.39,0,0,1-.622.083,2.264,2.264,0,0,1-.444-.044A2.361,2.361,0,0,0,3.493,7.3,4.733,4.733,0,0,1,.563,8.313,5.014,5.014,0,0,1,0,8.281,6.669,6.669,0,0,0,3.616,9.342,6.666,6.666,0,0,0,10.329,2.63l-.008-.305A4.711,4.711,0,0,0,11.5,1.105Z" transform="translate(0 0)" fill="#FF173E"/>
    </clipPath>
  </defs>
  <path id="Shape-2" data-name="Shape" d="M11.5,1.105a4.711,4.711,0,0,1-1.355.372,2.369,2.369,0,0,0,1.037-1.3,4.756,4.756,0,0,1-1.5.573A2.361,2.361,0,0,0,5.664,2.9,6.7,6.7,0,0,1,.8.431a2.362,2.362,0,0,0,.73,3.149,2.359,2.359,0,0,1-1.069-.3v.029A2.362,2.362,0,0,0,2.355,5.627a2.39,2.39,0,0,1-.622.083,2.264,2.264,0,0,1-.444-.044A2.361,2.361,0,0,0,3.493,7.3,4.733,4.733,0,0,1,.563,8.313,5.014,5.014,0,0,1,0,8.281,6.669,6.669,0,0,0,3.616,9.342,6.666,6.666,0,0,0,10.329,2.63l-.008-.305A4.711,4.711,0,0,0,11.5,1.105Z" transform="translate(0 0)" fill="#FF173E"/>
</svg>
